<?xml version="1.0" encoding="UTF-8" standalone="no"?>
<!-- Created with Inkscape (http://www.inkscape.org/) -->

<svg
   width="32"
   height="32"
   viewBox="0 0 8.4666665 8.4666666"
   version="1.1"
   id="svg5"
   inkscape:version="1.2.1 (9c6d41e410, 2022-07-14)"
   sodipodi:docname="Icona.svg"
   xmlns:inkscape="http://www.inkscape.org/namespaces/inkscape"
   xmlns:sodipodi="http://sodipodi.sourceforge.net/DTD/sodipodi-0.dtd"
   xmlns="http://www.w3.org/2000/svg"
   xmlns:svg="http://www.w3.org/2000/svg">
  <sodipodi:namedview
     id="namedview7"
     pagecolor="#ffffff"
     bordercolor="#111111"
     borderopacity="1"
     inkscape:showpageshadow="0"
     inkscape:pageopacity="0"
     inkscape:pagecheckerboard="1"
     inkscape:deskcolor="#d1d1d1"
     inkscape:document-units="mm"
     showgrid="false"
     inkscape:zoom="11.313709"
     inkscape:cx="15.77732"
     inkscape:cy="17.014757"
     inkscape:current-layer="layer2" />
  <defs
     id="defs2">
    <rect
       x="2.4173794"
       y="2.5224829"
       width="42.251589"
       height="34.263726"
       id="rect240" />
  </defs>
  <g
     inkscape:groupmode="layer"
     id="layer2"
     inkscape:label="Layer 0">
    <rect
       style="font-variation-settings:normal;display:none;opacity:0.444444;vector-effect:none;fill:#e1bf00;fill-opacity:1;fill-rule:evenodd;-inkscape-stroke:none;stop-color:#000000;stop-opacity:1"
       id="rect290"
       width="10.289877"
       height="10.079402"
       x="-1.0757599"
       y="-0.65481037" />
    <path
       sodipodi:type="star"
       style="opacity:0.299127;fill:#00ffff;stroke:#808000;stroke-width:0;stop-color:#000000"
       id="path395"
       inkscape:flatsided="false"
       sodipodi:sides="5"
       sodipodi:cx="-4.1159506"
       sodipodi:cy="-1.964431"
       sodipodi:r1="4.195179"
       sodipodi:r2="4.1947093"
       sodipodi:arg1="1.0471976"
       sodipodi:arg2="1.6755161"
       inkscape:rounded="0"
       inkscape:randomized="0"
       d="m -2.0183613,1.6687006 -2.5360559,0.5385986 -2.3686562,-1.0541048 -1.295922,-2.2454964 0.2705582,-2.5784623 1.735132,-1.9263916 2.5358704,-0.5394725 2.3682927,1.0549209 1.29669582,2.2450499 -0.27144671,2.5783686 z"
       inkscape:transform-center-x="0.000273121"
       inkscape:transform-center-y="-0.00028692262"
       transform="matrix(1.2132647,-0.13126678,0.13126678,1.2132647,9.4852081,6.0767072)" />
  </g>
  <g
     inkscape:label="Layer 1"
     inkscape:groupmode="layer"
     id="layer1">
    <path
       d="M 0.42493516,1.6615663 H 1.1208453 v 2.1738581 l 2.308217,-2.1738581 h 0.895726 L 1.7719692,4.0593558 4.5073786,6.8051002 H 3.590982 L 1.1208453,4.3280735 V 6.8051002 H 0.42493516 Z"
       id="path1651"
       style="font-size:26.6667px;-inkscape-font-specification:'sans-serif, Normal';baseline-shift:baseline;white-space:pre;stroke:#000000;stroke-width:0" />
    <path
       d="m 5.2184478,4.3487441 v 1.8844696 h 1.1162123 q 0.5615511,0 0.8302691,-0.2308217 0.2721628,-0.2342666 0.2721628,-0.7131357 0,-0.482314 -0.2721628,-0.7096905 Q 6.8962112,4.3487441 6.3346601,4.3487441 Z m 0,-2.1152912 v 1.5502949 h 1.0300848 q 0.5098746,0 0.757922,-0.1894806 0.2514923,-0.1929254 0.2514923,-0.5856668 0,-0.3892963 -0.2514923,-0.5822219 Q 6.7584072,2.2334529 6.2485326,2.2334529 Z M 4.5225376,1.6615663 h 1.7776713 q 0.7958183,0 1.2264557,0.3307296 0.4306374,0.3307296 0.4306374,0.9405122 0,0.4719788 -0.2204863,0.7510317 -0.2204865,0.2790531 -0.6476788,0.3479551 0.51332,0.1102432 0.795818,0.4616434 0.2859434,0.3479552 0.2859434,0.8716103 0,0.68902 -0.4685337,1.0645359 Q 7.2338312,6.8051002 6.3691109,6.8051002 H 4.5225376 Z"
       id="path1653"
       style="font-size:26.6667px;-inkscape-font-specification:'sans-serif, Normal';baseline-shift:baseline;white-space:pre;stroke:#000000;stroke-width:0" />
  </g>
</svg>
